<svg width="58" height="42" viewBox="-1.144 6.45818 117.972 85.57922" fill="none" xmlns="http://www.w3.org/2000/svg">
<path d="M41.7766 8.45818C49.8902 8.58238 55.8514 11.1489 61.1086 15.3714C62.806 16.7789 64.379 18.1863 66.0762 19.5938C66.2004 19.718 66.9456 19.5938 67.194 19.304C70.1744 17.0272 73.155 14.5021 76.3012 12.3908C80.8548 9.57588 85.8222 8.16842 91.2452 8.45818C97.3718 8.74796 102.919 10.8592 107.597 14.6676C113.434 19.304 116.29 25.5134 116.828 32.882C117.408 38.9674 115.959 44.7214 113.682 50.3928C110.288 58.5892 104.575 64.9228 98.0342 70.7184C91.9076 76.0584 85.367 81.026 78.5366 85.5382C76.2598 86.9456 73.8588 88.3532 71.582 89.7606C68.0218 92.0374 64.6274 91.582 61.0672 89.4708C52.9536 84.8344 45.4194 79.453 38.2992 73.409C35.3188 70.8838 32.1726 68.1932 29.4818 65.2126C22.9412 58.4236 18.2634 50.3928 16.6903 41.0786C15.4071 33.8756 16.2764 27.128 20.0848 20.753C23.6036 15.0816 28.6952 11.5629 35.1118 9.57588C37.5128 9.03774 40.2448 8.74796 41.7766 8.45818Z" fill="#4E9060"/>
<path d="M73.661 9.64754L73.6686 9.64792C79.4158 9.92536 84.633 11.9422 89.0278 15.5847L89.0278 15.5848L89.0374 15.5925C94.4582 19.992 97.1478 25.8776 97.6658 32.9688L97.6656 32.9688L97.6672 32.987C98.183 38.82 96.88 44.378 94.685 49.9488C91.429 57.9038 85.9904 64.0928 79.637 69.8316C73.6808 75.1304 67.313 80.0606 60.6574 84.5398C59.5516 85.2358 58.4144 86.9326 57.2698 87.6338L57.2666 87.6356C56.12 88.338 54.966 89.045 53.8422 89.7526L53.842 89.7526L53.8244 89.7642C52.277 90.7774 50.8176 91.15 49.3824 91.072C47.925 90.9926 46.396 89.4428 44.7406 88.4496L44.7406 88.4494L44.7278 88.442C36.8486 83.8458 29.4978 78.508 22.5524 72.5078L22.5498 72.5056C19.6101 69.9798 16.6024 67.3354 14.0121 64.4212L14.0012 64.409L13.99 64.397C7.69658 57.6976 3.1977 49.8744 1.71268 40.8438L1.71271 40.8438L1.71114 40.8348C0.508956 33.862 1.31585 27.4108 4.91484 21.3192C8.08546 15.9968 12.8158 12.6441 18.8549 10.7271C19.999 10.4727 21.2096 10.2739 22.3414 10.1014C22.631 10.0572 22.918 10.0144 23.1984 9.97266C23.9524 9.86026 24.6568 9.75524 25.2264 9.65118C32.8184 9.79406 38.4078 12.2439 43.3654 16.2867C44.1836 16.9822 44.9822 17.6785 45.7874 18.3804L45.79 18.3828C46.5906 19.0807 47.3974 19.7841 48.2258 20.4884C48.4446 20.6826 48.6778 20.755 48.7954 20.7844C48.9436 20.8214 49.0796 20.8312 49.1812 20.8326C49.387 20.8356 49.5926 20.8066 49.7732 20.7656C49.9748 20.6972 50.5376 20.5416 50.9038 20.2114C51.8818 19.4531 52.843 18.6818 53.7994 17.9145C55.7624 16.3394 57.7046 14.7811 59.7272 13.3857C64.0024 10.6991 68.6384 9.37284 73.661 9.64754Z" fill="#F1F9F3" stroke="#4E9060" stroke-width="2.38222"/>
</svg>